<svg xmlns="http://www.w3.org/2000/svg" viewBox="0 0 512 512" role="img" aria-label="WhatsApp">
  <rect width="512" height="512" rx="64" fill="#25D366"></rect>
  <path fill="#FFFFFF" d="M256 96c-88.4 0-160 71.6-160 160 0 28.3 7.4 55.7 21.5 79.8L96 416l82.3-21.2c23.3 12.7 49.6 19.2 77.7 19.2 88.4 0 160-71.6 160-160S344.4 96 256 96zm0 288c-24.5 0-48.4-6.6-69.1-19.1l-4.9-2.9-48.8 12.6 13-47.5-3.2-5.1c-13.4-21.4-20.5-46.1-20.5-71.4 0-73.7 59.8-133.5 133.5-133.5S389.5 177 389.5 250.7 329.7 384 256 384zm73.2-99.8c-4-2-23.7-11.7-27.4-13-3.7-1.3-6.4-2-9.1 2-2.7 4-10.4 13-12.7 15.7-2.3 2.7-4.7 3-8.7 1-23.7-11.9-39.2-21.2-54.9-48.1-4.2-7.3 4.2-6.8 12-22.6 1.3-2.7.7-5-0.3-7-1-2-9.1-21.9-12.4-30-3.2-7.7-6.5-6.7-9.1-6.8h-7.7c-2.7 0-7 .9-10.7 5-3.7 4-14 13.7-14 33.4s14.4 38.7 16.4 41.4c2 2.7 28.3 43.2 68.5 60.6 25.4 11 35.4 11.9 48.1 10 7.7-1.2 23.7-9.7 27-19.1 3.3-9.4 3.3-17.4 2.3-19.1-1-1.7-3.7-2.7-7.7-4.7z"></path>
</svg>